<svg xmlns="http://www.w3.org/2000/svg" width="114" height="31" viewBox="0 0 114 31" fill="none"><path fill-rule="evenodd" clip-rule="evenodd" d="M13.5321 1.48769C13.1878 1.41687 12.8326 1.41687 12.4883 1.48769C12.0902 1.56955 11.7345 1.76882 11.4516 1.92724L11.3745 1.97031L1.78853 7.29587C1.76202 7.31059 1.73471 7.32564 1.70673 7.34105C1.40732 7.50596 1.03086 7.71332 0.741756 8.02704C0.491806 8.29827 0.30265 8.61974 0.186938 8.96996C0.0531005 9.37503 0.0546664 9.80482 0.0559117 10.1466C0.0560281 10.1786 0.0561416 10.2098 0.0561416 10.2401V20.755C0.0561416 20.7854 0.0560281 20.8165 0.0559117 20.8485C0.0546664 21.1903 0.0531005 21.6201 0.186938 22.0252C0.302651 22.3754 0.491807 22.6969 0.741757 22.9681C1.03086 23.2818 1.40733 23.4892 1.70673 23.6541C1.73472 23.6695 1.76203 23.6845 1.78853 23.6992L11.3745 29.0248L11.4516 29.0679C11.7345 29.2263 12.0902 29.4256 12.4883 29.5074C12.8326 29.5783 13.1878 29.5783 13.5321 29.5074C13.9302 29.4256 14.2859 29.2263 14.5688 29.0679L14.6459 29.0248L24.2319 23.6992C24.2436 23.6927 24.2555 23.6862 24.2675 23.6795C24.2827 23.6712 24.2981 23.6627 24.3137 23.6541C24.6131 23.4892 24.9896 23.2818 25.2787 22.9681C25.5286 22.6969 25.7178 22.3754 25.8335 22.0252C25.9673 21.6201 25.9658 21.1903 25.9645 20.8485C25.9644 20.8165 25.9643 20.7854 25.9643 20.755V10.2401C25.9643 10.2098 25.9644 10.1786 25.9645 10.1466C25.9658 9.80482 25.9673 9.37503 25.8335 8.96995C25.7178 8.61974 25.5286 8.29827 25.2787 8.02703C24.9896 7.71331 24.6131 7.50595 24.3137 7.34104L24.3126 7.34046C24.285 7.32525 24.2581 7.3104 24.2319 7.29587L14.6459 1.97031L14.5688 1.92724C14.2859 1.76882 13.9302 1.56955 13.5321 1.48769ZM12.6327 4.23509C12.8291 4.12603 12.9293 4.07092 13.004 4.03487L13.0102 4.0319L13.0164 4.03486C13.0912 4.07092 13.1914 4.12602 13.3877 4.23509L22.0014 9.02049L13.0102 14.0156L4.01897 9.02052L12.6327 4.23509ZM2.64696 11.2221L11.7148 16.2597L11.7148 26.2501L3.04674 21.4345C2.83953 21.3194 2.73374 21.26 2.65952 21.2127L2.65325 21.2087L2.65279 21.2012C2.64749 21.1134 2.64696 20.9921 2.64696 20.755V11.2221Z" fill="#101828"></path><path d="M37.9761 17.9114H42.0997V20.3414H34.8281V7.4182H37.9761V17.9114Z" fill="#101828"></path><path d="M45.0003 9.00138C44.448 9.00138 43.9939 8.84184 43.638 8.52275C43.2944 8.19139 43.1226 7.78639 43.1226 7.30775C43.1226 6.81684 43.2944 6.41184 43.638 6.09275C43.9939 5.76139 44.448 5.5957 45.0003 5.5957C45.5403 5.5957 45.9821 5.76139 46.3258 6.09275C46.6817 6.41184 46.8596 6.81684 46.8596 7.30775C46.8596 7.78639 46.6817 8.19139 46.3258 8.52275C45.9821 8.84184 45.5403 9.00138 45.0003 9.00138ZM46.5651 10.0691V20.3414H43.4171V10.0691H46.5651Z" fill="#101828"></path><path d="M52.565 9.92184C53.2891 9.92184 53.9211 10.0691 54.4611 10.3637C55.0134 10.6582 55.4368 11.0448 55.7314 11.5234V10.0691H58.8793V20.323C58.8793 21.268 58.6891 22.1209 58.3086 22.8818C57.9405 23.655 57.3698 24.2687 56.5966 24.7227C55.8357 25.1768 54.8845 25.4039 53.7432 25.4039C52.2214 25.4039 50.988 25.0418 50.043 24.3177C49.0979 23.6059 48.558 22.6364 48.423 21.4091H51.5341C51.6323 21.8018 51.8655 22.1087 52.2336 22.3296C52.6018 22.5627 53.0559 22.6793 53.5959 22.6793C54.2464 22.6793 54.7618 22.4891 55.1423 22.1087C55.535 21.7405 55.7314 21.1452 55.7314 20.323V18.8687C55.4245 19.3473 55.0011 19.74 54.4611 20.0468C53.9211 20.3414 53.2891 20.4887 52.565 20.4887C51.7182 20.4887 50.9511 20.2739 50.2639 19.8443C49.5766 19.4025 49.0305 18.7828 48.6255 17.985C48.2327 17.175 48.0364 16.2423 48.0364 15.1868C48.0364 14.1314 48.2327 13.2048 48.6255 12.4071C49.0305 11.6093 49.5766 10.9957 50.2639 10.5662C50.9511 10.1366 51.7182 9.92184 52.565 9.92184ZM55.7314 15.2052C55.7314 14.4198 55.5105 13.8 55.0686 13.3459C54.6391 12.8918 54.1114 12.6648 53.4855 12.6648C52.8595 12.6648 52.3257 12.8918 51.8839 13.3459C51.4543 13.7878 51.2395 14.4014 51.2395 15.1868C51.2395 15.9723 51.4543 16.5982 51.8839 17.0646C52.3257 17.5187 52.8595 17.7457 53.4855 17.7457C54.1114 17.7457 54.6391 17.5187 55.0686 17.0646C55.5105 16.6105 55.7314 15.9907 55.7314 15.2052Z" fill="#101828"></path><path d="M67.2869 9.95866C68.4651 9.95866 69.4101 10.3514 70.1219 11.1368C70.8338 11.91 71.1897 12.9777 71.1897 14.34V20.3414H68.0601V14.7634C68.0601 14.0762 67.8822 13.5423 67.5263 13.1618C67.1704 12.7814 66.6917 12.5912 66.0904 12.5912C65.489 12.5912 65.0104 12.7814 64.6544 13.1618C64.2985 13.5423 64.1206 14.0762 64.1206 14.7634V20.3414H60.9726V6.71866H64.1206V11.4498C64.4397 10.9957 64.8754 10.6337 65.4276 10.3637C65.9799 10.0937 66.5997 9.95866 67.2869 9.95866Z" fill="#101828"></path><path d="M78.9183 17.6721V20.3414H77.3167C76.1754 20.3414 75.2856 20.0652 74.6474 19.513C74.0092 18.9484 73.6901 18.0341 73.6901 16.77V12.6832H72.4383V10.0691H73.6901V7.56548H76.8381V10.0691H78.8999V12.6832H76.8381V16.8068C76.8381 17.1137 76.9117 17.3346 77.059 17.4696C77.2063 17.6046 77.4517 17.6721 77.7954 17.6721H78.9183Z" fill="#101828"></path><path d="M83.6357 11.5234C83.9302 11.0448 84.3536 10.6582 84.9059 10.3637C85.4582 10.0691 86.0902 9.92184 86.802 9.92184C87.6488 9.92184 88.4159 10.1366 89.1032 10.5662C89.7904 10.9957 90.3304 11.6093 90.7232 12.4071C91.1282 13.2048 91.3307 14.1314 91.3307 15.1868C91.3307 16.2423 91.1282 17.175 90.7232 17.985C90.3304 18.7828 89.7904 19.4025 89.1032 19.8443C88.4159 20.2739 87.6488 20.4887 86.802 20.4887C86.0779 20.4887 85.4459 20.3475 84.9059 20.0652C84.3659 19.7707 83.9425 19.3841 83.6357 18.9055V20.3414H80.4877V6.71866H83.6357V11.5234ZM88.1275 15.1868C88.1275 14.4014 87.9066 13.7878 87.4647 13.3459C87.0352 12.8918 86.5013 12.6648 85.8632 12.6648C85.2372 12.6648 84.7034 12.8918 84.2616 13.3459C83.832 13.8 83.6172 14.4198 83.6172 15.2052C83.6172 15.9907 83.832 16.6105 84.2616 17.0646C84.7034 17.5187 85.2372 17.7457 85.8632 17.7457C86.4891 17.7457 87.0229 17.5187 87.4647 17.0646C87.9066 16.5982 88.1275 15.9723 88.1275 15.1868Z" fill="#101828"></path><path d="M97.474 20.4887C96.4676 20.4887 95.5594 20.2739 94.7494 19.8443C93.9517 19.4148 93.3196 18.8012 92.8533 18.0034C92.3992 17.2057 92.1721 16.273 92.1721 15.2052C92.1721 14.1498 92.4053 13.2232 92.8717 12.4255C93.3381 11.6155 93.9762 10.9957 94.7862 10.5662C95.5962 10.1366 96.5044 9.92184 97.5108 9.92184C98.5172 9.92184 99.4253 10.1366 100.235 10.5662C101.045 10.9957 101.684 11.6155 102.15 12.4255C102.616 13.2232 102.849 14.1498 102.849 15.2052C102.849 16.2607 102.61 17.1934 102.131 18.0034C101.665 18.8012 101.021 19.4148 100.199 19.8443C99.3885 20.2739 98.4803 20.4887 97.474 20.4887ZM97.474 17.7641C98.0753 17.7641 98.5847 17.5432 99.0019 17.1014C99.4315 16.6596 99.6462 16.0275 99.6462 15.2052C99.6462 14.383 99.4376 13.7509 99.0203 13.3091C98.6153 12.8673 98.1122 12.6464 97.5108 12.6464C96.8972 12.6464 96.3878 12.8673 95.9828 13.3091C95.5778 13.7387 95.3753 14.3707 95.3753 15.2052C95.3753 16.0275 95.5717 16.6596 95.9644 17.1014C96.3694 17.5432 96.8726 17.7641 97.474 17.7641Z" fill="#101828"></path><path d="M110.41 20.3414L108.441 17.488L106.784 20.3414H103.378L106.765 15.0948L103.286 10.0691H106.821L108.79 12.9041L110.447 10.0691H113.853L110.41 15.2421L113.945 20.3414H110.41Z" fill="#101828"></path></svg>