<svg xmlns="http://www.w3.org/2000/svg" width="116" height="31" viewBox="0 0 116 31" fill="none"><path fill-rule="evenodd" clip-rule="evenodd" d="M15.4268 30.5C23.711 30.5 30.4268 23.7843 30.4268 15.5C30.4268 7.21574 23.711 0.5 15.4268 0.5C7.14247 0.5 0.426758 7.21574 0.426758 15.5C0.426758 23.7843 7.14247 30.5 15.4268 30.5ZM20.1062 7.48764C20.334 6.67854 19.5488 6.2001 18.8318 6.71098L8.82159 13.8422C8.04392 14.3962 8.16624 15.5 9.00534 15.5H11.6413V15.4796H16.7786L12.5927 16.9566L10.7473 23.5124C10.5195 24.3215 11.3046 24.7999 12.0218 24.289L22.0319 17.1579C22.8096 16.6038 22.6872 15.5 21.8482 15.5H17.8508L20.1062 7.48764Z" fill="#155EEF"></path><path d="M37.9268 22.6592V20.2865H39.8086V10.7138H37.9268V8.34105H45.2904C46.1631 8.34105 46.9199 8.49105 47.5608 8.79105C48.2154 9.07742 48.7199 9.49332 49.0745 10.0388C49.4427 10.5706 49.6268 11.2115 49.6268 11.9615V12.1661C49.6268 12.8206 49.504 13.3592 49.2586 13.782C49.0131 14.1911 48.7199 14.5115 48.379 14.7433C48.0518 14.9615 47.7381 15.1183 47.4381 15.2138V15.582C47.7381 15.6638 48.0654 15.8206 48.4199 16.0524C48.7745 16.2706 49.0745 16.5911 49.3199 17.0138C49.579 17.4365 49.7086 17.9888 49.7086 18.6706V18.8751C49.7086 19.6661 49.5245 20.3479 49.1563 20.9206C48.7881 21.4797 48.2768 21.9092 47.6222 22.2092C46.9813 22.5092 46.2313 22.6592 45.3722 22.6592H37.9268ZM42.5086 20.2047H45.0449C45.6313 20.2047 46.1018 20.0615 46.4563 19.7751C46.8245 19.4888 47.0086 19.0797 47.0086 18.5479V18.3433C47.0086 17.8115 46.8313 17.4024 46.4768 17.1161C46.1222 16.8297 45.6449 16.6865 45.0449 16.6865H42.5086V20.2047ZM42.5086 14.232H45.004C45.5631 14.232 46.0199 14.0888 46.3745 13.8024C46.7427 13.5161 46.9268 13.1206 46.9268 12.6161V12.4115C46.9268 11.8933 46.7495 11.4979 46.3949 11.2251C46.0404 10.9388 45.5768 10.7956 45.004 10.7956H42.5086V14.232Z" fill="#101828"></path><path d="M55.8053 22.9456C54.7962 22.9456 53.8894 22.7411 53.0849 22.332C52.2803 21.9229 51.6462 21.3297 51.1826 20.5524C50.7189 19.7751 50.4871 18.8411 50.4871 17.7501V17.4229C50.4871 16.332 50.7189 15.3979 51.1826 14.6206C51.6462 13.8433 52.2803 13.2501 53.0849 12.8411C53.8894 12.432 54.7962 12.2274 55.8053 12.2274C56.8144 12.2274 57.7212 12.432 58.5258 12.8411C59.3303 13.2501 59.9644 13.8433 60.428 14.6206C60.8917 15.3979 61.1235 16.332 61.1235 17.4229V17.7501C61.1235 18.8411 60.8917 19.7751 60.428 20.5524C59.9644 21.3297 59.3303 21.9229 58.5258 22.332C57.7212 22.7411 56.8144 22.9456 55.8053 22.9456ZM55.8053 20.6547C56.5962 20.6547 57.2508 20.4024 57.7689 19.8979C58.2871 19.3797 58.5462 18.6433 58.5462 17.6888V17.4842C58.5462 16.5297 58.2871 15.8001 57.7689 15.2956C57.2644 14.7774 56.6099 14.5183 55.8053 14.5183C55.0144 14.5183 54.3599 14.7774 53.8417 15.2956C53.3235 15.8001 53.0644 16.5297 53.0644 17.4842V17.6888C53.0644 18.6433 53.3235 19.3797 53.8417 19.8979C54.3599 20.4024 55.0144 20.6547 55.8053 20.6547Z" fill="#101828"></path><path d="M62.4797 22.6592V8.34105H65.057V22.6592H62.4797Z" fill="#101828"></path><path d="M70.7766 22.6592C70.1084 22.6592 69.563 22.4547 69.1402 22.0456C68.7311 21.6229 68.5266 21.0638 68.5266 20.3683V14.6411H65.9902V12.5138H68.5266V9.36378H71.1039V12.5138H73.8857V14.6411H71.1039V19.9183C71.1039 20.3274 71.2948 20.532 71.6766 20.532H73.6402V22.6592H70.7766Z" fill="#101828"></path><path d="M79.4095 22.9456C78.0868 22.9456 77.0027 22.6592 76.1573 22.0865C75.3118 21.5138 74.8004 20.6956 74.6232 19.632L76.9959 19.0183C77.0914 19.4956 77.2482 19.8706 77.4664 20.1433C77.6982 20.4161 77.9777 20.6138 78.305 20.7365C78.6459 20.8456 79.0141 20.9001 79.4095 20.9001C80.0095 20.9001 80.4527 20.7979 80.7391 20.5933C81.0254 20.3751 81.1686 20.1092 81.1686 19.7956C81.1686 19.482 81.0323 19.2433 80.7595 19.0797C80.4868 18.9024 80.0504 18.7592 79.4504 18.6501L78.8777 18.5479C78.1686 18.4115 77.5209 18.2274 76.9345 17.9956C76.3482 17.7501 75.8777 17.4161 75.5232 16.9933C75.1686 16.5706 74.9913 16.0251 74.9913 15.357C74.9913 14.3479 75.3595 13.5774 76.0959 13.0456C76.8323 12.5001 77.8004 12.2274 79.0004 12.2274C80.1323 12.2274 81.0732 12.4797 81.8232 12.9842C82.5732 13.4888 83.0641 14.1501 83.2959 14.9683L80.9027 15.7047C80.7936 15.1865 80.5686 14.8183 80.2277 14.6001C79.9004 14.382 79.4913 14.2729 79.0004 14.2729C78.5095 14.2729 78.1345 14.3615 77.8754 14.5388C77.6163 14.7024 77.4868 14.9342 77.4868 15.2342C77.4868 15.5615 77.6232 15.807 77.8959 15.9706C78.1686 16.1206 78.5368 16.2365 79.0004 16.3183L79.5732 16.4206C80.3368 16.557 81.0254 16.7411 81.6391 16.9729C82.2664 17.1911 82.7573 17.5115 83.1118 17.9342C83.48 18.3433 83.6641 18.9024 83.6641 19.6115C83.6641 20.6751 83.2754 21.5001 82.4982 22.0865C81.7345 22.6592 80.705 22.9456 79.4095 22.9456Z" fill="#101828"></path><path d="M84.8998 22.6592V8.34105H87.4771V13.7615H87.8453C87.9544 13.5433 88.1248 13.3251 88.3566 13.107C88.5885 12.8888 88.8953 12.7115 89.2771 12.5751C89.6725 12.4251 90.1703 12.3501 90.7703 12.3501C91.5612 12.3501 92.2498 12.5342 92.8362 12.9024C93.4362 13.257 93.8998 13.7547 94.2271 14.3956C94.5544 15.0229 94.718 15.7592 94.718 16.6047V22.6592H92.1407V16.8092C92.1407 16.0456 91.9498 15.4729 91.568 15.0911C91.1998 14.7092 90.668 14.5183 89.9725 14.5183C89.1816 14.5183 88.568 14.7842 88.1316 15.3161C87.6953 15.8342 87.4771 16.5638 87.4771 17.5047V22.6592H84.8998Z" fill="#101828"></path><path d="M96.4814 22.6592V12.5138H99.0587V22.6592H96.4814ZM97.77 11.3274C97.3064 11.3274 96.911 11.1774 96.5837 10.8774C96.27 10.5774 96.1132 10.182 96.1132 9.69105C96.1132 9.20014 96.27 8.80469 96.5837 8.50469C96.911 8.20469 97.3064 8.05469 97.77 8.05469C98.2473 8.05469 98.6428 8.20469 98.9564 8.50469C99.27 8.80469 99.4269 9.20014 99.4269 9.69105C99.4269 10.182 99.27 10.5774 98.9564 10.8774C98.6428 11.1774 98.2473 11.3274 97.77 11.3274Z" fill="#101828"></path><path d="M102.569 22.6592V14.6411H99.9919V12.5138H102.569V10.632C102.569 9.93651 102.774 9.38423 103.183 8.97514C103.606 8.55242 104.151 8.34105 104.819 8.34105H107.478V10.4683H105.719C105.337 10.4683 105.146 10.6729 105.146 11.082V12.5138H107.806V14.6411H105.146V22.6592H102.569Z" fill="#101828"></path><path d="M112.465 22.6592C111.797 22.6592 111.251 22.4547 110.828 22.0456C110.419 21.6229 110.215 21.0638 110.215 20.3683V14.6411H107.678V12.5138H110.215V9.36378H112.792V12.5138H115.574V14.6411H112.792V19.9183C112.792 20.3274 112.983 20.532 113.365 20.532H115.328V22.6592H112.465Z" fill="#101828"></path></svg>