<svg xmlns="http://www.w3.org/2000/svg" width="114" height="31" viewBox="0 0 114 31" fill="none"><circle cx="15.5361" cy="15.6699" r="13.5" stroke="#6927DA" stroke-width="3"></circle><path d="M20.7428 20.8769C17.9703 23.6495 14.8455 25.4416 12.0942 26.1491C9.30512 26.8663 7.19373 26.4197 5.98999 25.216C4.78626 24.0122 4.33967 21.9009 5.05686 19.1118C5.76435 16.3604 7.5565 13.2357 10.3291 10.4632C13.1016 7.6906 16.2263 5.89845 18.9777 5.19096C21.7667 4.47377 23.8781 4.92036 25.0819 6.1241C26.2856 7.32783 26.7322 9.43922 26.015 12.2283C25.3075 14.9796 23.5154 18.1044 20.7428 20.8769Z" stroke="#6927DA" stroke-width="3"></path><path d="M20.7431 10.4632C23.5157 13.2358 25.3078 16.3605 26.0153 19.1119C26.7325 21.9009 26.2859 24.0123 25.0822 25.2161C23.8785 26.4198 21.7671 26.8664 18.978 26.1492C16.2266 25.4417 13.1019 23.6496 10.3294 20.877C7.55681 18.1044 5.76466 14.9797 5.05717 12.2284C4.33998 9.43931 4.78657 7.32791 5.99031 6.12418C7.19404 4.92045 9.30543 4.47385 12.0945 5.19104C14.8459 5.89853 17.9706 7.69068 20.7431 10.4632Z" stroke="#6927DA" stroke-width="3"></path><path d="M43.3879 22.4816C46.5993 22.4816 48.7675 20.8043 48.7675 18.1248C48.7675 12.4588 41.2402 14.8725 41.2402 11.8861C41.2402 11.0475 41.997 10.4748 43.2038 10.4748C44.5743 10.4748 45.4334 11.2111 45.5356 12.3361H48.4606C48.3788 9.61566 46.2925 7.83612 43.2038 7.83612C40.2993 7.83612 38.2538 9.51339 38.2538 11.8861C38.2538 17.5111 45.6788 15.3634 45.6788 18.1657C45.6788 19.2498 44.7584 19.8225 43.3879 19.8225C41.8743 19.8225 40.9129 18.902 40.7902 17.4498H37.8447C37.9675 20.4975 40.1356 22.4816 43.3879 22.4816Z" fill="#101828"></path><path d="M49.4631 26.4907H52.3063V21.3975C52.8585 22.0929 53.8608 22.4816 55.0267 22.4816C57.9926 22.4816 59.9972 20.3748 59.9972 17.1634C59.9972 13.952 58.1563 11.8452 55.2722 11.8452C53.9426 11.8452 52.9199 12.3361 52.3063 13.1338V12.0088H49.4631V26.4907ZM54.679 20.027C53.1449 20.027 52.1426 18.8816 52.1426 17.1634C52.1426 15.4248 53.1449 14.2793 54.679 14.2793C56.1722 14.2793 57.1949 15.4248 57.1949 17.1634C57.1949 18.8816 56.1722 20.027 54.679 20.027Z" fill="#101828"></path><path d="M60.6851 22.3179H63.5283V16.6725C63.5283 15.3429 64.4078 14.3816 65.6556 14.3816C66.8419 14.3816 67.6601 15.2816 67.6601 16.5293V22.3179H70.5033V15.8952C70.5033 13.5225 68.9896 11.8452 66.6783 11.8452C65.2465 11.8452 64.1215 12.4384 63.5283 13.4407V7.5293H60.6851V22.3179Z" fill="#101828"></path><path d="M78.4569 18.8202C78.2319 19.6998 77.4751 20.1498 76.3296 20.1498C74.8978 20.1498 73.9774 19.2498 73.7728 17.7975H81.1774C81.1978 17.5725 81.2183 17.2657 81.2183 16.877C81.2183 14.5248 79.766 11.8452 76.1251 11.8452C72.6274 11.8452 71.0319 14.5248 71.0319 17.1429C71.0319 19.7407 72.8319 22.4816 76.3296 22.4816C78.866 22.4816 80.8296 21.0498 81.2387 18.8202H78.4569ZM76.1251 13.9316C77.4955 13.9316 78.2933 14.852 78.3751 15.9975H73.8137C74.0592 14.5657 74.8365 13.9316 76.1251 13.9316Z" fill="#101828"></path><path d="M88.6749 14.3816V12.0088H87.2079C85.9602 12.0088 85.1829 12.4384 84.6307 13.727V12.0088H81.767V22.3179H84.6307V17.3066C84.6307 15.5475 85.2648 14.3816 86.6761 14.3816H88.6749Z" fill="#101828"></path><path d="M98.4931 12.0088H95.6295V17.6543C95.6295 18.9634 94.7499 19.9452 93.5022 19.9452C92.3363 19.9452 91.5181 19.0452 91.5181 17.7975V12.0088H88.6749V18.4316C88.6749 20.7838 90.1885 22.4816 92.4999 22.4816C93.9113 22.4816 95.0567 21.8679 95.6295 20.8861V22.3179H98.4931V12.0088Z" fill="#101828"></path><path d="M99.7205 22.3179H102.564V7.5293H99.7205V22.3179Z" fill="#101828"></path><path d="M110.681 18.8202C110.456 19.6998 109.699 20.1498 108.554 20.1498C107.122 20.1498 106.201 19.2498 105.997 17.7975H113.401C113.422 17.5725 113.442 17.2657 113.442 16.877C113.442 14.5248 111.99 11.8452 108.349 11.8452C104.851 11.8452 103.256 14.5248 103.256 17.1429C103.256 19.7407 105.056 22.4816 108.554 22.4816C111.09 22.4816 113.054 21.0498 113.463 18.8202H110.681ZM108.349 13.9316C109.719 13.9316 110.517 14.852 110.599 15.9975H106.038C106.283 14.5657 107.06 13.9316 108.349 13.9316Z" fill="#101828"></path></svg>