<svg xmlns="http://www.w3.org/2000/svg" width="138" height="31" viewBox="0 0 138 31" fill="none"><path d="M25.4063 6.74752C25.1055 6.45282 24.8048 6.15813 24.5041 5.86343C23.6018 4.92041 22.6395 3.97738 21.4365 3.38799C20.0531 2.68072 18.5494 2.85754 17.0457 2.85754C14.7601 2.85754 9.04602 2.85754 5.67773 2.85754L7.96336 5.86343C12.1136 5.86343 18.6096 5.86343 21.617 5.86343C22.8801 5.86343 23.9627 6.09919 24.9852 6.74752C25.1657 6.80646 25.3461 6.80646 25.4063 6.74752Z" fill="#66C61C"></path><path d="M27.9332 11.5805C27.6325 11.2858 27.3317 10.9911 27.031 10.6964C26.1288 9.75341 25.1664 8.81039 23.9634 8.22099C22.58 7.51372 21.0763 7.69055 19.5726 7.69055C17.5878 7.69055 12.8361 7.69055 9.46777 7.69055L11.7534 10.6964C15.8435 10.6964 21.4372 10.6964 24.204 10.6964C25.4671 10.6964 26.5498 10.9322 27.5723 11.5805C27.6926 11.6395 27.8129 11.6395 27.9332 11.5805Z" fill="#4CA30D"></path><path d="M30.7601 16.2954C30.4593 16.0007 30.1586 15.706 29.8578 15.4113C28.9556 14.4683 27.9933 13.5252 26.7903 12.9358C25.4069 12.2286 23.9032 12.4054 22.3995 12.4054C20.5349 12.4054 16.4449 12.4054 13.1367 12.4054L15.4223 15.4113C19.3921 15.4113 24.4445 15.4113 26.9708 15.4113C28.2339 15.4113 29.3165 15.647 30.339 16.2954C30.5195 16.3543 30.6398 16.4133 30.7601 16.2954Z" fill="#3B7C0F"></path><path d="M5.4375 24.2522C5.73824 24.5469 6.03898 24.8416 6.33972 25.1363C7.24194 26.0793 8.2043 27.0223 9.40726 27.6117C10.7907 28.319 12.2944 28.1422 13.7981 28.1422H25.166L22.8804 25.1363C18.7302 25.1363 12.2342 25.1363 9.22682 25.1363C7.96372 25.1363 6.88105 24.9005 5.85853 24.2522C5.67809 24.1933 5.5578 24.1933 5.4375 24.2522Z" fill="#66C61C"></path><path d="M2.91113 19.4192C3.21187 19.7139 3.51261 20.0086 3.81335 20.3033C4.71557 21.2463 5.67793 22.1893 6.88089 22.7787C8.2643 23.486 9.768 23.3092 11.2717 23.3092H21.3766L19.0909 20.3033C15.0009 20.3033 9.40711 20.3033 6.64031 20.3033C5.3772 20.3033 4.29453 20.0675 3.27202 19.4192C3.15172 19.3603 3.03143 19.3603 2.91113 19.4192Z" fill="#4CA30D"></path><path d="M0.144531 14.6458C0.445271 14.9405 0.746011 15.2352 1.04675 15.5299C1.94897 16.4729 2.91134 17.4159 4.1143 18.0053C5.4977 18.7126 7.0014 18.5358 8.5051 18.5358H17.7679L15.4823 15.5299C11.5125 15.5299 6.46007 15.5299 3.93386 15.5299C2.67075 15.5299 1.58808 15.2941 0.565565 14.6458C0.385121 14.5868 0.264827 14.5868 0.144531 14.6458Z" fill="#3B7C0F"></path><path d="M37.7178 8.56055V22.1915H40.7765V16.5596H46.6018V14.2305H40.7765V11.0805H47.498V8.56055H37.7178Z" fill="#101828"></path><path d="M55.1697 16.1969H50.6692C50.6822 16.006 50.7212 15.7896 50.7861 15.5478C50.864 15.306 50.9874 15.0769 51.1563 14.8605C51.3381 14.6442 51.5719 14.466 51.8576 14.326C52.1564 14.1733 52.5265 14.0969 52.9681 14.0969C53.6435 14.0969 54.1436 14.2751 54.4683 14.6315C54.806 14.9878 55.0398 15.5096 55.1697 16.1969ZM50.6692 17.9151H57.9362C57.9881 17.1515 57.9232 16.4196 57.7413 15.7196C57.5595 15.0196 57.2608 14.396 56.8452 13.8487C56.4425 13.3015 55.923 12.8687 55.2866 12.5505C54.6501 12.2196 53.9033 12.0542 53.0461 12.0542C52.2798 12.0542 51.5784 12.1878 50.942 12.4551C50.3185 12.7224 49.7795 13.0915 49.3249 13.5624C48.8703 14.0205 48.5196 14.5678 48.2729 15.2042C48.0261 15.8405 47.9027 16.5278 47.9027 17.266C47.9027 18.0296 48.0196 18.7296 48.2534 19.366C48.5002 20.0024 48.8443 20.5496 49.2859 21.0078C49.7276 21.466 50.2666 21.8224 50.903 22.0769C51.5394 22.3187 52.2538 22.4396 53.0461 22.4396C54.189 22.4396 55.1632 22.1851 55.9684 21.676C56.7737 21.1669 57.3712 20.3205 57.7608 19.1369H55.3255C55.2346 19.4424 54.9878 19.7351 54.5852 20.0151C54.1825 20.2824 53.702 20.416 53.1435 20.416C52.3642 20.416 51.7667 20.2187 51.3511 19.8242C50.9355 19.4296 50.7082 18.7933 50.6692 17.9151Z" fill="#101828"></path><path d="M58.8756 15.3569C58.9146 14.7205 59.0769 14.1924 59.3626 13.7724C59.6484 13.3524 60.0121 13.0151 60.4537 12.7605C60.8953 12.506 61.3888 12.3278 61.9343 12.226C62.4928 12.1115 63.0513 12.0542 63.6098 12.0542C64.1164 12.0542 64.6294 12.0924 65.1489 12.1687C65.6685 12.2324 66.1426 12.366 66.5712 12.5696C66.9998 12.7733 67.3505 13.0596 67.6232 13.4287C67.896 13.7851 68.0324 14.2624 68.0324 14.8605V19.996C68.0324 20.4415 68.0583 20.8678 68.1103 21.2751C68.1622 21.6824 68.2532 21.9878 68.383 22.1915H65.5776C65.5256 22.0387 65.4801 21.886 65.4412 21.7333C65.4152 21.5678 65.3957 21.4024 65.3827 21.2369C64.9411 21.6824 64.4216 21.9942 63.8241 22.1724C63.2267 22.3505 62.6162 22.4396 61.9928 22.4396C61.5122 22.4396 61.0641 22.3824 60.6485 22.2678C60.2329 22.1533 59.8692 21.9751 59.5575 21.7333C59.2458 21.4915 58.999 21.186 58.8171 20.8169C58.6483 20.4478 58.5639 20.0087 58.5639 19.4996C58.5639 18.9396 58.6613 18.4815 58.8561 18.1251C59.0639 17.756 59.3237 17.4633 59.6354 17.2469C59.9601 17.0305 60.3238 16.8715 60.7264 16.7696C61.1421 16.6551 61.5577 16.566 61.9733 16.5024C62.3889 16.4387 62.7981 16.3878 63.2007 16.3496C63.6033 16.3115 63.9605 16.2542 64.2722 16.1778C64.584 16.1015 64.8307 15.9933 65.0126 15.8533C65.1944 15.7005 65.2788 15.4842 65.2658 15.2042C65.2658 14.9115 65.2139 14.6824 65.11 14.5169C65.0191 14.3387 64.8892 14.2051 64.7203 14.116C64.5645 14.0142 64.3761 13.9505 64.1553 13.9251C63.9475 13.8869 63.7202 13.8678 63.4735 13.8678C62.9279 13.8678 62.4993 13.9824 62.1876 14.2115C61.8759 14.4405 61.6941 14.8224 61.6421 15.3569H58.8756ZM65.2658 17.3615C65.1489 17.4633 64.9996 17.546 64.8177 17.6096C64.6489 17.6605 64.4606 17.7051 64.2528 17.7433C64.0579 17.7815 63.8501 17.8133 63.6293 17.8387C63.4085 17.8642 63.1877 17.896 62.9669 17.9342C62.7591 17.9724 62.5513 18.0233 62.3435 18.0869C62.1486 18.1505 61.9733 18.2396 61.8174 18.3542C61.6746 18.456 61.5577 18.5896 61.4668 18.7551C61.3758 18.9205 61.3304 19.1305 61.3304 19.3851C61.3304 19.6269 61.3758 19.8305 61.4668 19.996C61.5577 20.1615 61.6811 20.2951 61.8369 20.3969C61.9928 20.486 62.1746 20.5496 62.3824 20.5878C62.5902 20.626 62.8046 20.6451 63.0254 20.6451C63.5709 20.6451 63.993 20.556 64.2917 20.3778C64.5904 20.1996 64.8113 19.9896 64.9541 19.7478C65.097 19.4933 65.1814 19.2387 65.2074 18.9842C65.2464 18.7296 65.2658 18.526 65.2658 18.3733V17.3615Z" fill="#101828"></path><path d="M73.1021 12.3215V9.36237H70.3355V12.3215H68.6601V14.1351H70.3355V19.9578C70.3355 20.4542 70.42 20.8551 70.5888 21.1605C70.7577 21.466 70.985 21.7015 71.2707 21.8669C71.5694 22.0324 71.9071 22.1405 72.2838 22.1915C72.6734 22.2551 73.0826 22.2869 73.5112 22.2869C73.7839 22.2869 74.0632 22.2805 74.3489 22.2678C74.6347 22.2551 74.8944 22.2296 75.1282 22.1915V20.0915C74.9984 20.1169 74.862 20.136 74.7191 20.1487C74.5762 20.1615 74.4269 20.1678 74.271 20.1678C73.8034 20.1678 73.4917 20.0915 73.3358 19.9387C73.18 19.786 73.1021 19.4805 73.1021 19.0224V14.1351H75.1282V12.3215H73.1021Z" fill="#101828"></path><path d="M75.86 8.56055V22.1915H78.6266V17.0178C78.6266 16.0124 78.7954 15.2933 79.1331 14.8605C79.4708 14.4151 80.0163 14.1924 80.7696 14.1924C81.432 14.1924 81.8931 14.396 82.1529 14.8033C82.4127 15.1978 82.5425 15.8024 82.5425 16.6169V22.1915H85.309V16.1205C85.309 15.5096 85.2506 14.956 85.1337 14.4596C85.0298 13.9505 84.8415 13.5242 84.5687 13.1805C84.296 12.8242 83.9193 12.5505 83.4387 12.3596C82.9711 12.156 82.3672 12.0542 81.6269 12.0542C81.1073 12.0542 80.5748 12.1878 80.0293 12.4551C79.4838 12.7096 79.0357 13.1233 78.685 13.696H78.6266V8.56055H75.86Z" fill="#101828"></path><path d="M93.6042 16.1969H89.1037C89.1167 16.006 89.1557 15.7896 89.2206 15.5478C89.2985 15.306 89.4219 15.0769 89.5908 14.8605C89.7726 14.6442 90.0064 14.466 90.2921 14.326C90.5909 14.1733 90.961 14.0969 91.4027 14.0969C92.078 14.0969 92.5781 14.2751 92.9028 14.6315C93.2405 14.9878 93.4743 15.5096 93.6042 16.1969ZM89.1037 17.9151H96.3707C96.4226 17.1515 96.3577 16.4196 96.1759 15.7196C95.994 15.0196 95.6953 14.396 95.2797 13.8487C94.877 13.3015 94.3575 12.8687 93.7211 12.5505C93.0846 12.2196 92.3378 12.0542 91.4806 12.0542C90.7143 12.0542 90.0129 12.1878 89.3765 12.4551C88.753 12.7224 88.214 13.0915 87.7594 13.5624C87.3048 14.0205 86.9542 14.5678 86.7074 15.2042C86.4606 15.8405 86.3372 16.5278 86.3372 17.266C86.3372 18.0296 86.4541 18.7296 86.6879 19.366C86.9347 20.0024 87.2789 20.5496 87.7205 21.0078C88.1621 21.466 88.7011 21.8224 89.3375 22.0769C89.9739 22.3187 90.6883 22.4396 91.4806 22.4396C92.6236 22.4396 93.5977 22.1851 94.403 21.676C95.2082 21.1669 95.8057 20.3205 96.1953 19.1369H93.76C93.6691 19.4424 93.4223 19.7351 93.0197 20.0151C92.6171 20.2824 92.1365 20.416 91.578 20.416C90.7987 20.416 90.2012 20.2187 89.7856 19.8242C89.37 19.4296 89.1427 18.7933 89.1037 17.9151Z" fill="#101828"></path><path d="M97.427 12.3215V22.1915H100.194V17.7433C100.194 17.2978 100.239 16.8842 100.33 16.5024C100.421 16.1205 100.57 15.7896 100.778 15.5096C100.999 15.2169 101.285 14.9878 101.635 14.8224C101.986 14.6569 102.415 14.5742 102.921 14.5742C103.09 14.5742 103.265 14.5869 103.447 14.6124C103.629 14.6251 103.785 14.6442 103.915 14.6696V12.1496C103.694 12.086 103.493 12.0542 103.311 12.0542C102.96 12.0542 102.622 12.1051 102.298 12.2069C101.973 12.3087 101.668 12.4551 101.382 12.646C101.096 12.8242 100.843 13.0469 100.622 13.3142C100.401 13.5687 100.226 13.8487 100.096 14.1542H100.057V12.3215H97.427Z" fill="#101828"></path><path d="M107.766 19.6715V11.0805H109.948C110.701 11.0805 111.331 11.1887 111.838 11.4051C112.357 11.6087 112.773 11.9078 113.085 12.3024C113.396 12.6969 113.617 13.1742 113.747 13.7342C113.89 14.2815 113.961 14.8987 113.961 15.586C113.961 16.3369 113.864 16.9733 113.669 17.4951C113.474 18.0169 113.214 18.4433 112.89 18.7742C112.565 19.0924 112.195 19.3215 111.779 19.4615C111.364 19.6015 110.935 19.6715 110.493 19.6715H107.766ZM104.707 8.56055V22.1915H110.708C111.773 22.1915 112.695 22.0196 113.474 21.676C114.266 21.3196 114.922 20.836 115.442 20.2251C115.974 19.6142 116.371 18.8887 116.63 18.0487C116.89 17.2087 117.02 16.2924 117.02 15.2996C117.02 14.1669 116.858 13.1805 116.533 12.3405C116.221 11.5005 115.78 10.8005 115.208 10.2405C114.65 9.68055 113.981 9.26055 113.201 8.98055C112.435 8.70055 111.604 8.56055 110.708 8.56055H104.707Z" fill="#101828"></path><path d="M125.051 16.1969H120.55C120.563 16.006 120.602 15.7896 120.667 15.5478C120.745 15.306 120.869 15.0769 121.037 14.8605C121.219 14.6442 121.453 14.466 121.739 14.326C122.038 14.1733 122.408 14.0969 122.849 14.0969C123.525 14.0969 124.025 14.2751 124.349 14.6315C124.687 14.9878 124.921 15.5096 125.051 16.1969ZM120.55 17.9151H127.817C127.869 17.1515 127.804 16.4196 127.623 15.7196C127.441 15.0196 127.142 14.396 126.726 13.8487C126.324 13.3015 125.804 12.8687 125.168 12.5505C124.531 12.2196 123.785 12.0542 122.927 12.0542C122.161 12.0542 121.46 12.1878 120.823 12.4551C120.2 12.7224 119.661 13.0915 119.206 13.5624C118.752 14.0205 118.401 14.5678 118.154 15.2042C117.907 15.8405 117.784 16.5278 117.784 17.266C117.784 18.0296 117.901 18.7296 118.135 19.366C118.381 20.0024 118.726 20.5496 119.167 21.0078C119.609 21.466 120.148 21.8224 120.784 22.0769C121.421 22.3187 122.135 22.4396 122.927 22.4396C124.07 22.4396 125.044 22.1851 125.85 21.676C126.655 21.1669 127.252 20.3205 127.642 19.1369H125.207C125.116 19.4424 124.869 19.7351 124.466 20.0151C124.064 20.2824 123.583 20.416 123.025 20.416C122.245 20.416 121.648 20.2187 121.232 19.8242C120.817 19.4296 120.589 18.7933 120.55 17.9151Z" fill="#101828"></path><path d="M134.446 22.1915L137.855 12.3215H135.108L132.984 19.0605H132.946L130.822 12.3215H127.919L131.367 22.1915H134.446Z" fill="#101828"></path></svg>