<svg xmlns="http://www.w3.org/2000/svg" width="136" height="31" viewBox="0 0 136 31" fill="none"><path d="M21.7333 0.5H10.2394L0.986328 9.753V21.247L10.2394 30.5H21.7333L30.9863 21.247V9.753L21.7333 0.5ZM11.8297 21.3916L5.902 15.4638L11.8297 9.53614C14.0707 7.29518 17.7574 7.29518 19.9984 9.53614L25.9261 15.4638L19.9984 21.3916C17.7574 23.6325 14.143 23.6325 11.8297 21.3916Z" fill="#444CE7"></path><path d="M44.1721 22.4816C46.013 22.4816 47.5267 21.5407 47.9971 20.1293V22.3179H50.7176V16.7952C50.7176 15.5475 49.7357 14.4838 48.4062 14.4838H44.5198V16.7952H47.2812C47.6289 16.7952 47.8539 17.0202 47.8539 17.3679C47.8539 18.6975 46.0948 19.9861 44.3153 19.9861C41.9426 19.9861 40.0607 18.1248 40.0607 15.1588C40.0607 12.1929 41.9426 10.4748 44.3767 10.4748C46.2176 10.4748 47.4857 11.477 47.7107 13.0111H50.7585C50.5744 9.94293 47.9971 7.83612 44.3971 7.83612C40.613 7.83612 37.1357 10.2702 37.1357 15.1588C37.1357 20.0475 40.5107 22.4816 44.1721 22.4816Z" fill="#101828"></path><path d="M51.8854 22.3179H54.7286V7.5293H51.8854V22.3179Z" fill="#101828"></path><path d="M60.8616 22.4816C64.032 22.4816 66.3025 20.2316 66.3025 17.1634C66.3025 14.0952 64.032 11.8452 60.8616 11.8452C57.6911 11.8452 55.4207 14.0952 55.4207 17.1634C55.4207 20.2316 57.6911 22.4816 60.8616 22.4816ZM60.8616 20.027C59.3275 20.027 58.2843 18.8611 58.2843 17.1634C58.2843 15.4452 59.3275 14.2793 60.8616 14.2793C62.3957 14.2793 63.4389 15.4452 63.4389 17.1634C63.4389 18.8611 62.3957 20.027 60.8616 20.027Z" fill="#101828"></path><path d="M72.6645 22.4816C75.7122 22.4816 77.5327 20.3748 77.5327 17.1634C77.5327 13.952 75.7122 11.8452 72.7054 11.8452C71.4168 11.8452 70.4145 12.3361 69.8418 13.0929V7.5293H66.9986V22.3179H69.8418V21.1929C70.4145 21.9907 71.4781 22.4816 72.6645 22.4816ZM72.2145 20.027C70.6804 20.027 69.6781 18.8816 69.6781 17.1634C69.6781 15.4248 70.6804 14.2793 72.2145 14.2793C73.7077 14.2793 74.7304 15.4248 74.7304 17.1634C74.7304 18.8816 73.7077 20.027 72.2145 20.027Z" fill="#101828"></path><path d="M82.292 11.8452C79.4693 11.8452 77.792 13.502 77.6693 15.5679H80.2057C80.2466 14.7088 80.8807 13.9316 82.1284 13.9316C83.2943 13.9316 83.9693 14.5248 83.9693 15.3838C83.9693 15.8134 83.7034 16.1407 83.192 16.1407H81.4534C79.2034 16.1407 77.6898 17.3679 77.6898 19.3929C77.6898 21.152 79.0602 22.4816 81.0648 22.4816C82.4761 22.4816 83.6216 21.8475 83.9693 20.8861V22.3179H86.792V15.6907C86.792 13.3588 84.8898 11.8452 82.292 11.8452ZM81.7807 20.4157C80.9829 20.4157 80.4102 19.9452 80.4102 19.2702C80.4102 18.4725 81.0238 17.9407 81.8829 17.9407H83.9693V18.0838C83.9693 19.3929 83.1716 20.4157 81.7807 20.4157Z" fill="#101828"></path><path d="M87.8846 22.3179H90.7278V7.5293H87.8846V22.3179Z" fill="#101828"></path><path d="M92.2381 22.3179H98.0881C101.115 22.3179 103.202 20.7634 103.202 18.0429C103.202 16.1611 102.097 15.0157 100.788 14.5043C101.627 14.0543 102.465 13.0316 102.465 11.6816C102.465 9.28839 100.522 7.99975 97.9244 7.99975H92.2381V22.3179ZM95.2653 13.4611V10.4338H97.6381C99.0085 10.4338 99.6221 10.9861 99.6221 11.9475C99.6221 12.9088 99.0085 13.4611 97.6994 13.4611H95.2653ZM95.2653 19.6588V16.0588H97.8221C99.5199 16.0588 100.277 16.7134 100.277 17.8793C100.277 19.0452 99.5199 19.6588 97.8221 19.6588H95.2653Z" fill="#101828"></path><path d="M108.148 11.8452C105.325 11.8452 103.648 13.502 103.525 15.5679H106.061C106.102 14.7088 106.736 13.9316 107.984 13.9316C109.15 13.9316 109.825 14.5248 109.825 15.3838C109.825 15.8134 109.559 16.1407 109.048 16.1407H107.309C105.059 16.1407 103.546 17.3679 103.546 19.3929C103.546 21.152 104.916 22.4816 106.921 22.4816C108.332 22.4816 109.477 21.8475 109.825 20.8861V22.3179H112.648V15.6907C112.648 13.3588 110.746 11.8452 108.148 11.8452ZM107.636 20.4157C106.839 20.4157 106.266 19.9452 106.266 19.2702C106.266 18.4725 106.88 17.9407 107.739 17.9407H109.825V18.0838C109.825 19.3929 109.027 20.4157 107.636 20.4157Z" fill="#101828"></path><path d="M113.577 22.3179H116.44V16.6725C116.44 15.3429 117.32 14.3816 118.568 14.3816C119.754 14.3816 120.552 15.2816 120.552 16.5293V22.3179H123.415V15.8952C123.415 13.5225 121.902 11.8452 119.57 11.8452C118.159 11.8452 117.013 12.4384 116.44 13.4407V12.0088H113.577V22.3179Z" fill="#101828"></path><path d="M131.577 22.3179H135.013L130.575 16.0588L134.686 12.0088H131.086L127.506 15.527V7.5293H124.643V22.3179H127.506V19.0861L128.652 17.9611L131.577 22.3179Z" fill="#101828"></path></svg>