<svg xmlns="http://www.w3.org/2000/svg" width="114" height="31" viewBox="0 0 114 31" fill="none"><g clip-path="url(#clip0_1_106839)"><path d="M17.1682 3.076L14.5303 2.36914L12.3072 10.6658L10.3001 3.17552L7.66209 3.88238L9.83057 11.9751L4.42941 6.57394L2.49824 8.50511L8.42263 14.4295L1.04475 12.4526L0.337891 15.0906L8.39916 17.2506C8.30687 16.8526 8.25804 16.4378 8.25804 16.0116C8.25804 12.9949 10.7035 10.5494 13.7202 10.5494C16.7369 10.5494 19.1824 12.9949 19.1824 16.0116C19.1824 16.435 19.1342 16.8473 19.043 17.243L26.3692 19.206L27.076 16.568L18.9827 14.3994L26.3611 12.4224L25.6542 9.78439L17.5612 11.9529L22.9624 6.55177L21.0312 4.62061L15.189 10.4628L17.1682 3.076Z" fill="#FF4405"></path><path d="M19.0353 17.2737C18.8091 18.2299 18.3316 19.0889 17.6765 19.7772L22.984 25.0847L24.9151 23.1536L19.0353 17.2737Z" fill="#FF4405"></path><path d="M17.6229 19.8326C16.9598 20.5099 16.1218 21.0153 15.1821 21.2757L17.1135 28.4834L19.7514 27.7765L17.6229 19.8326Z" fill="#FF4405"></path><path d="M15.0836 21.3021C14.6476 21.4142 14.1907 21.4737 13.7197 21.4737C13.2152 21.4737 12.7267 21.4053 12.2629 21.2773L10.3298 28.4915L12.9678 29.1984L15.0836 21.3021Z" fill="#FF4405"></path><path d="M12.1696 21.2507C11.2442 20.9773 10.4212 20.4655 9.77164 19.7863L4.45108 25.1069L6.38224 27.038L12.1696 21.2507Z" fill="#FF4405"></path><path d="M9.7278 19.7392C9.0894 19.0558 8.62438 18.2082 8.40304 17.2668L1.05292 19.2363L1.75977 21.8743L9.7278 19.7392Z" fill="#FF4405"></path></g><path d="M42.9502 8.56836V18.0746L36.8564 8.56836H34.4189V21.6934H36.8564V12.2621L42.9502 21.6934H45.3877V8.56836H42.9502Z" fill="#101828"></path><path d="M46.486 11.0246H48.9985V8.56836H46.486V11.0246ZM46.5235 21.6934V12.3184H48.961V21.6934H46.5235Z" fill="#101828"></path><path d="M59.4486 17.0059C59.4486 13.7621 57.1423 12.2246 54.7048 12.2059C52.2486 12.1871 49.9798 13.7621 49.9798 17.0059C49.9798 20.2496 52.2486 21.8246 54.7048 21.8059C56.9361 21.7871 58.4736 20.7559 59.1861 19.0496L57.2923 18.2621C56.7111 19.4246 55.7923 19.8371 54.7048 19.8559C53.7673 19.8746 52.6986 19.4246 52.4736 17.7559H59.3923C59.4298 17.5121 59.4486 17.2684 59.4486 17.0059ZM54.7048 14.1371C55.6423 14.1559 56.5986 14.6621 56.8986 16.0121H52.5111C52.8298 14.6434 53.7861 14.1184 54.7048 14.1371Z" fill="#101828"></path><path d="M65.0818 14.0621V12.2059H63.5443V9.69336L61.1068 10.4434V12.2059H59.5693V14.0621H61.1068V18.9184C61.1068 20.7559 61.2568 21.6934 64.1068 21.6934H64.763V19.5559H64.1068C63.6568 19.5559 63.5443 19.4809 63.5443 18.9184V14.0621H65.0818Z" fill="#101828"></path><path d="M68.7038 19.6496L73.8788 14.3621V12.3184H66.1163V14.3621H71.1413L65.9663 19.6496V21.6934H73.935V19.6496H68.7038Z" fill="#101828"></path><path d="M74.8089 19.0496L77.2652 18.6746C77.4339 19.6121 78.5402 19.9684 79.2152 19.9684C79.9089 19.9684 81.1089 19.8184 81.1089 18.6934C81.1089 16.4996 75.0902 19.2371 75.0902 15.0371C75.0902 12.3371 78.2214 12.1871 79.2152 12.1871C80.1527 12.1871 82.8714 12.3371 83.4339 14.5121L81.1089 14.9996C80.9027 14.0059 79.8527 13.8184 79.2902 13.8184C78.7277 13.8184 77.5277 13.9496 77.5277 15.0371C77.5277 17.2121 83.5464 14.4371 83.5464 18.6934C83.5464 21.5621 80.2464 21.8059 79.2152 21.8059C78.2777 21.8059 75.2964 21.5621 74.8089 19.0496Z" fill="#101828"></path><path d="M86.713 17.0059C86.713 19.2934 87.9317 19.9871 89.2067 19.9684C90.3505 19.9496 91.138 19.4809 91.6067 18.1684L93.613 19.1434C92.8817 21.0559 91.1005 21.7871 89.2067 21.8059C86.7505 21.8246 84.2755 20.2496 84.2755 17.0059C84.2755 13.7621 86.7505 12.1871 89.2067 12.2059C91.1005 12.2246 92.8817 12.9559 93.613 14.8684L91.6067 15.8434C91.138 14.5309 90.3505 14.0621 89.2067 14.0434C87.9317 14.0246 86.713 14.7184 86.713 17.0059Z" fill="#101828"></path><path d="M100.157 12.1684C98.9003 12.1684 97.7566 12.8246 97.0253 14.2309V8.56836H94.5878V21.6934H97.0253V18.3746C97.0253 14.0809 98.8066 13.7246 99.4628 13.7246C100.513 13.7246 100.663 14.8121 100.663 16.4059V21.6934H103.1V16.4059C103.1 14.4184 102.782 12.1684 100.157 12.1684Z" fill="#101828"></path><path d="M113.391 17.0059C113.391 13.7621 111.085 12.2246 108.648 12.2059C106.191 12.1871 103.923 13.7621 103.923 17.0059C103.923 20.2496 106.191 21.8246 108.648 21.8059C110.879 21.7871 112.416 20.7559 113.129 19.0496L111.235 18.2621C110.654 19.4246 109.735 19.8371 108.648 19.8559C107.71 19.8746 106.641 19.4246 106.416 17.7559H113.335C113.373 17.5121 113.391 17.2684 113.391 17.0059ZM108.648 14.1371C109.585 14.1559 110.541 14.6621 110.841 16.0121H106.454C106.773 14.6434 107.729 14.1184 108.648 14.1371Z" fill="#101828"></path><defs><clipPath id="clip0_1_106839"><rect width="27.5" height="27.5" fill="white" transform="translate(0.125 1.75)"></rect></clipPath></defs></svg>